ply
format ascii 1.0
comment Created by Blender 2.91.0 - www.blender.org
element vertex 482
property float x
property float y
property float z
element face 512
property list uchar uint vertex_indices
end_header
0.000000 0.831469 -0.555570
0.000000 0.923879 -0.382683
0.180240 0.906127 -0.382683
0.162212 0.815493 -0.555570
0.000000 0.707107 0.707107
0.000000 0.555570 0.831470
0.108386 0.544895 0.831470
0.137950 0.693520 0.707107
0.000000 0.707106 -0.707107
0.137950 0.693520 -0.707107
0.000000 0.831470 0.555570
0.162212 0.815493 0.555570
0.000000 0.555570 -0.831470
0.108386 0.544895 -0.831470
0.000000 0.923880 0.382683
0.180240 0.906127 0.382683
0.000000 0.382683 -0.923880
0.074658 0.375330 -0.923880
0.000000 0.980785 0.195090
0.191342 0.961940 0.195090
0.000000 0.195090 -0.980785
0.038060 0.191341 -0.980785
0.000000 1.000000 0.000000
0.195090 0.980785 0.000000
0.000000 0.195090 0.980785
-0.000000 -0.000001 1.000000
0.038060 0.191342 0.980785
0.000000 -0.000000 -1.000000
0.000000 0.980785 -0.195090
0.191342 0.961940 -0.195090
0.000000 0.382683 0.923880
0.074658 0.375330 0.923880
0.375330 0.906127 -0.195090
0.353554 0.853553 -0.382683
0.146447 0.353553 0.923880
0.212608 0.513280 0.831470
0.318190 0.768178 -0.555570
0.270598 0.653281 0.707107
0.270598 0.653281 -0.707107
0.318190 0.768178 0.555570
0.212608 0.513280 -0.831470
0.353553 0.853553 0.382683
0.146447 0.353553 -0.923880
0.375330 0.906127 0.195090
0.074658 0.180240 -0.980785
0.382684 0.923879 0.000000
0.074658 0.180240 0.980785
0.308658 0.461940 -0.831470
0.212608 0.318189 -0.923880
0.513280 0.768178 0.382683
0.544895 0.815493 0.195090
0.108386 0.162211 -0.980785
0.555570 0.831469 0.000000
0.108387 0.162212 0.980785
0.544895 0.815493 -0.195090
0.212608 0.318190 0.923880
0.513280 0.768178 -0.382683
0.308658 0.461940 0.831470
0.461940 0.691342 -0.555570
0.392848 0.587938 0.707107
0.392848 0.587938 -0.707107
0.461940 0.691342 0.555570
0.270598 0.270598 0.923880
0.392848 0.392847 0.831470
0.653282 0.653281 -0.382683
0.587938 0.587938 -0.555570
0.500000 0.500000 0.707107
0.500000 0.500000 -0.707107
0.587938 0.587938 0.555570
0.392848 0.392847 -0.831470
0.653282 0.653281 0.382683
0.270598 0.270598 -0.923880
0.693520 0.693520 0.195090
0.137950 0.137949 -0.980785
0.707107 0.707107 0.000000
0.137950 0.137950 0.980785
0.693520 0.693520 -0.195090
0.768178 0.513280 0.382683
0.815493 0.544895 0.195090
0.318190 0.212607 -0.923880
0.162212 0.108386 -0.980785
0.831470 0.555570 0.000000
0.162212 0.108386 0.980785
0.815493 0.544895 -0.195090
0.318190 0.212607 0.923880
0.768178 0.513280 -0.382683
0.461940 0.308658 0.831470
0.691342 0.461940 -0.555570
0.587938 0.392847 0.707107
0.587938 0.392847 -0.707107
0.691342 0.461940 0.555570
0.461940 0.308658 -0.831470
0.853554 0.353553 -0.382683
0.768178 0.318189 -0.555570
0.513280 0.212607 0.831470
0.653282 0.270598 0.707107
0.653282 0.270598 -0.707107
0.768178 0.318189 0.555570
0.513280 0.212607 -0.831470
0.853554 0.353553 0.382683
0.353554 0.146446 -0.923880
0.906128 0.375330 0.195090
0.180240 0.074658 -0.980785
0.923880 0.382683 0.000000
0.180240 0.074658 0.980785
0.906128 0.375330 -0.195090
0.353554 0.146446 0.923880
0.375330 0.074658 -0.923880
0.191342 0.038060 -0.980785
0.961940 0.191341 0.195090
0.980785 0.195090 0.000000
0.191342 0.038060 0.980785
0.961940 0.191341 -0.195090
0.375331 0.074658 0.923880
0.906128 0.180240 -0.382683
0.544895 0.108386 0.831470
0.815493 0.162211 -0.555570
0.693520 0.137949 0.707107
0.693520 0.137949 -0.707107
0.815493 0.162211 0.555570
0.544895 0.108386 -0.831470
0.906128 0.180240 0.382683
0.555570 -0.000000 0.831470
0.707107 -0.000000 0.707107
0.831470 -0.000000 -0.555570
0.707107 -0.000000 -0.707107
0.831470 -0.000000 0.555570
0.555570 -0.000000 -0.831470
0.923880 -0.000000 0.382683
0.382684 -0.000000 -0.923880
0.980785 -0.000000 0.195090
0.195090 -0.000000 -0.980785
1.000000 -0.000000 0.000000
0.195091 -0.000000 0.980785
0.980785 -0.000000 -0.195090
0.382684 -0.000000 0.923880
0.923880 -0.000000 -0.382683
0.961940 -0.191342 0.195090
0.980785 -0.195091 0.000000
0.191342 -0.038061 0.980785
0.191342 -0.038061 -0.980785
0.961940 -0.191342 -0.195090
0.375331 -0.074658 0.923880
0.906128 -0.180240 -0.382683
0.544895 -0.108387 0.831470
0.815493 -0.162212 -0.555570
0.693520 -0.137950 0.707107
0.693520 -0.137950 -0.707107
0.815493 -0.162212 0.555570
0.544895 -0.108387 -0.831470
0.906128 -0.180240 0.382683
0.375330 -0.074658 -0.923880
0.768178 -0.318190 -0.555570
0.653282 -0.270598 -0.707107
0.653282 -0.270598 0.707107
0.768178 -0.318190 0.555570
0.513280 -0.212608 -0.831470
0.853554 -0.353554 0.382683
0.353553 -0.146447 -0.923880
0.906127 -0.375331 0.195090
0.180240 -0.074658 -0.980785
0.923880 -0.382684 0.000000
0.180240 -0.074658 0.980785
0.906127 -0.375331 -0.195090
0.353554 -0.146447 0.923880
0.853554 -0.353554 -0.382683
0.513280 -0.212608 0.831470
0.162212 -0.108387 -0.980785
0.831470 -0.555571 0.000000
0.815493 -0.544895 -0.195090
0.162212 -0.108387 0.980785
0.318190 -0.212608 0.923880
0.768178 -0.513280 -0.382683
0.461940 -0.308659 0.831470
0.691342 -0.461940 -0.555570
0.587938 -0.392848 0.707107
0.587938 -0.392848 -0.707107
0.691342 -0.461940 0.555570
0.461940 -0.308659 -0.831470
0.768178 -0.513280 0.382683
0.318190 -0.212608 -0.923880
0.815493 -0.544895 0.195090
0.500000 -0.500000 -0.707107
0.392848 -0.392848 -0.831470
0.587938 -0.587938 0.555570
0.653282 -0.653282 0.382683
0.270598 -0.270598 -0.923880
0.693520 -0.693520 0.195090
0.137950 -0.137950 -0.980785
0.707107 -0.707107 0.000000
0.137950 -0.137950 0.980785
0.693520 -0.693520 -0.195090
0.270598 -0.270599 0.923880
0.653282 -0.653282 -0.382683
0.392848 -0.392848 0.831470
0.587938 -0.587938 -0.555570
0.500000 -0.500000 0.707107
0.108386 -0.162212 0.980785
0.212608 -0.318190 0.923880
0.544895 -0.815493 -0.195090
0.513280 -0.768178 -0.382683
0.308658 -0.461940 0.831470
0.461940 -0.691342 -0.555570
0.392848 -0.587938 0.707107
0.392848 -0.587938 -0.707107
0.461940 -0.691342 0.555570
0.308658 -0.461940 -0.831470
0.513280 -0.768178 0.382683
0.212608 -0.318190 -0.923880
0.544895 -0.815493 0.195090
0.108386 -0.162212 -0.980785
0.555570 -0.831470 0.000000
0.318190 -0.768178 0.555570
0.353553 -0.853554 0.382683
0.212608 -0.513280 -0.831470
0.146447 -0.353554 -0.923880
0.375330 -0.906128 0.195090
0.074658 -0.180240 -0.980785
0.382683 -0.923880 0.000000
0.074658 -0.180240 0.980785
0.375330 -0.906128 -0.195090
0.146447 -0.353554 0.923880
0.353553 -0.853554 -0.382683
0.212608 -0.513280 0.831470
0.318190 -0.768178 -0.555570
0.270598 -0.653282 0.707107
0.270598 -0.653282 -0.707107
0.191342 -0.961940 -0.195090
0.180240 -0.906128 -0.382683
0.074658 -0.375331 0.923880
0.108386 -0.544896 0.831470
0.162212 -0.815493 -0.555570
0.137950 -0.693520 0.707107
0.137950 -0.693520 -0.707107
0.162212 -0.815493 0.555570
0.108386 -0.544895 -0.831470
0.180240 -0.906128 0.382683
0.074658 -0.375331 -0.923880
0.191342 -0.961940 0.195090
0.038060 -0.191342 -0.980785
0.195090 -0.980786 0.000000
0.038060 -0.191342 0.980785
-0.000000 -0.555570 -0.831470
0.000000 -0.382684 -0.923880
0.000000 -0.923880 0.382683
-0.000000 -0.980785 0.195090
0.000000 -0.195091 -0.980785
-0.000000 -1.000000 0.000000
-0.000000 -0.195091 0.980785
-0.000000 -0.980785 -0.195090
0.000000 -0.382684 0.923880
0.000000 -0.923880 -0.382683
0.000000 -0.555571 0.831470
-0.000000 -0.831470 -0.555570
-0.000000 -0.707107 0.707107
-0.000000 -0.707107 -0.707107
-0.000000 -0.831470 0.555570
-0.074658 -0.375331 0.923880
-0.108386 -0.544896 0.831470
-0.180240 -0.906128 -0.382683
-0.162212 -0.815493 -0.555570
-0.137950 -0.693520 0.707107
-0.137950 -0.693520 -0.707107
-0.162212 -0.815493 0.555570
-0.108386 -0.544895 -0.831470
-0.180240 -0.906128 0.382683
-0.074658 -0.375331 -0.923880
-0.191342 -0.961940 0.195090
-0.038060 -0.191342 -0.980785
-0.195090 -0.980786 0.000000
-0.038060 -0.191342 0.980785
-0.191342 -0.961940 -0.195090
-0.353553 -0.853554 0.382683
-0.375330 -0.906127 0.195090
-0.146447 -0.353554 -0.923880
-0.074658 -0.180240 -0.980785
-0.382684 -0.923880 0.000000
-0.074658 -0.180240 0.980785
-0.375330 -0.906127 -0.195090
-0.146447 -0.353554 0.923880
-0.353553 -0.853554 -0.382683
-0.212608 -0.513280 0.831470
-0.318190 -0.768178 -0.555570
-0.270598 -0.653282 0.707107
-0.270598 -0.653282 -0.707107
-0.318190 -0.768178 0.555570
-0.212608 -0.513280 -0.831470
-0.513280 -0.768178 -0.382683
-0.461940 -0.691342 -0.555570
-0.308658 -0.461940 0.831470
-0.392847 -0.587938 0.707107
-0.392847 -0.587938 -0.707107
-0.461940 -0.691342 0.555570
-0.308658 -0.461940 -0.831470
-0.513280 -0.768178 0.382683
-0.212607 -0.318190 -0.923880
-0.544895 -0.815493 0.195090
-0.108386 -0.162212 -0.980785
-0.555570 -0.831470 0.000000
-0.108386 -0.162212 0.980785
-0.544895 -0.815493 -0.195090
-0.212608 -0.318190 0.923880
-0.270598 -0.270598 -0.923880
-0.137950 -0.137950 -0.980785
-0.693520 -0.693520 0.195090
-0.707107 -0.707107 0.000000
-0.137950 -0.137950 0.980785
-0.693520 -0.693520 -0.195090
-0.270598 -0.270598 0.923880
-0.653281 -0.653282 -0.382683
-0.392848 -0.392848 0.831470
-0.587938 -0.587938 -0.555570
-0.500000 -0.500000 0.707107
-0.500000 -0.500000 -0.707107
-0.587938 -0.587938 0.555570
-0.392847 -0.392848 -0.831470
-0.653281 -0.653282 0.382683
-0.691342 -0.461940 -0.555570
-0.587938 -0.392848 -0.707107
-0.587938 -0.392848 0.707107
-0.691342 -0.461940 0.555570
-0.461940 -0.308658 -0.831470
-0.768178 -0.513280 0.382683
-0.318190 -0.212608 -0.923880
-0.815493 -0.544895 0.195090
-0.162212 -0.108387 -0.980785
-0.831470 -0.555570 0.000000
-0.162212 -0.108387 0.980785
-0.815493 -0.544895 -0.195090
-0.318190 -0.212608 0.923880
-0.768178 -0.513280 -0.382683
-0.461940 -0.308659 0.831470
-0.180240 -0.074658 0.980785
-0.180240 -0.074658 -0.980785
-0.923880 -0.382684 0.000000
-0.906127 -0.375330 -0.195090
-0.353553 -0.146447 0.923880
-0.853553 -0.353554 -0.382683
-0.513280 -0.212608 0.831470
-0.768177 -0.318190 -0.555570
-0.653281 -0.270598 0.707107
-0.653281 -0.270598 -0.707107
-0.768177 -0.318190 0.555570
-0.513280 -0.212608 -0.831470
-0.853553 -0.353554 0.382683
-0.353553 -0.146447 -0.923880
-0.906127 -0.375330 0.195090
-0.693520 -0.137950 0.707107
-0.815493 -0.162212 0.555570
-0.693520 -0.137950 -0.707107
-0.544895 -0.108387 -0.831470
-0.906127 -0.180240 0.382683
-0.375330 -0.074658 -0.923880
-0.961939 -0.191342 0.195090
-0.191342 -0.038061 -0.980785
-0.980785 -0.195090 0.000000
-0.191342 -0.038061 0.980785
-0.961939 -0.191342 -0.195090
-0.375330 -0.074658 0.923880
-0.906127 -0.180240 -0.382683
-0.544895 -0.108387 0.831470
-0.815493 -0.162212 -0.555570
-1.000000 -0.000000 0.000000
-0.980785 -0.000000 -0.195090
-0.195090 -0.000000 0.980785
-0.382683 -0.000000 0.923880
-0.923879 -0.000000 -0.382683
-0.555570 -0.000000 0.831470
-0.831469 -0.000000 -0.555570
-0.707107 -0.000000 0.707107
-0.707107 -0.000000 -0.707107
-0.831469 -0.000000 0.555570
-0.555570 -0.000000 -0.831470
-0.923879 -0.000000 0.382683
-0.382683 -0.000000 -0.923880
-0.980785 -0.000000 0.195090
-0.195090 -0.000000 -0.980785
-0.693520 0.137949 -0.707107
-0.544895 0.108386 -0.831470
-0.815493 0.162211 0.555570
-0.906127 0.180240 0.382683
-0.375330 0.074658 -0.923880
-0.961939 0.191342 0.195090
-0.191342 0.038060 -0.980785
-0.980785 0.195090 0.000000
-0.191342 0.038060 0.980785
-0.961939 0.191342 -0.195090
-0.375330 0.074658 0.923880
-0.906127 0.180240 -0.382683
-0.544895 0.108386 0.831470
-0.815493 0.162211 -0.555570
-0.693520 0.137949 0.707107
-0.180240 0.074658 0.980785
-0.353553 0.146446 0.923880
-0.906127 0.375330 -0.195090
-0.853553 0.353553 -0.382683
-0.513280 0.212607 0.831470
-0.768177 0.318189 -0.555570
-0.653281 0.270598 0.707107
-0.653281 0.270598 -0.707107
-0.768177 0.318189 0.555570
-0.513280 0.212607 -0.831470
-0.853553 0.353553 0.382683
-0.353553 0.146446 -0.923880
-0.906127 0.375330 0.195090
-0.180240 0.074657 -0.980785
-0.923879 0.382683 0.000000
-0.691341 0.461939 0.555570
-0.768178 0.513280 0.382683
-0.461940 0.308658 -0.831470
-0.318189 0.212607 -0.923880
-0.815493 0.544895 0.195090
-0.162212 0.108386 -0.980785
-0.831469 0.555570 0.000000
-0.162212 0.108386 0.980785
-0.815493 0.544895 -0.195090
-0.318190 0.212607 0.923880
-0.768178 0.513280 -0.382683
-0.461940 0.308658 0.831470
-0.691341 0.461939 -0.555570
-0.587938 0.392847 0.707107
-0.587938 0.392847 -0.707107
-0.693519 0.693519 -0.195090
-0.653281 0.653281 -0.382683
-0.270598 0.270598 0.923880
-0.392847 0.392847 0.831470
-0.587937 0.587937 -0.555570
-0.500000 0.500000 0.707107
-0.500000 0.500000 -0.707107
-0.587937 0.587937 0.555570
-0.392847 0.392847 -0.831470
-0.653281 0.653281 0.382683
-0.270598 0.270598 -0.923880
-0.693519 0.693519 0.195090
-0.137950 0.137949 -0.980785
-0.707106 0.707106 0.000000
-0.137950 0.137949 0.980785
-0.308658 0.461939 -0.831470
-0.212607 0.318189 -0.923880
-0.513280 0.768177 0.382683
-0.544895 0.815492 0.195090
-0.108386 0.162211 -0.980785
-0.555570 0.831469 0.000000
-0.108386 0.162211 0.980785
-0.544895 0.815492 -0.195090
-0.212607 0.318189 0.923880
-0.513280 0.768177 -0.382683
-0.308658 0.461939 0.831470
-0.461939 0.691341 -0.555570
-0.392847 0.587937 0.707107
-0.392847 0.587937 -0.707107
-0.461939 0.691341 0.555570
-0.353553 0.853553 -0.382683
-0.318189 0.768177 -0.555570
-0.212607 0.513280 0.831470
-0.270598 0.653281 0.707107
-0.270598 0.653281 -0.707107
-0.318189 0.768177 0.555570
-0.212607 0.513279 -0.831470
-0.353553 0.853553 0.382683
-0.146446 0.353553 -0.923880
-0.375330 0.906127 0.195090
-0.074658 0.180240 -0.980785
-0.382683 0.923879 0.000000
-0.074658 0.180240 0.980785
-0.375330 0.906127 -0.195090
-0.146447 0.353553 0.923880
-0.074658 0.375330 -0.923880
-0.038060 0.191341 -0.980785
-0.191341 0.961939 0.195090
-0.195090 0.980785 0.000000
-0.038060 0.191342 0.980785
-0.191341 0.961939 -0.195090
-0.074658 0.375330 0.923880
-0.180240 0.906127 -0.382683
-0.108386 0.544895 0.831470
-0.162211 0.815492 -0.555570
-0.137950 0.693520 0.707107
-0.137950 0.693520 -0.707107
-0.162211 0.815492 0.555570
-0.108386 0.544895 -0.831470
-0.180240 0.906127 0.382683
4 0 1 2 3
4 4 5 6 7
4 8 0 3 9
4 10 4 7 11
4 12 8 9 13
4 14 10 11 15
4 16 12 13 17
4 18 14 15 19
4 20 16 17 21
4 22 18 19 23
3 24 25 26
3 27 20 21
4 28 22 23 29
4 30 24 26 31
4 1 28 29 2
4 5 30 31 6
4 2 29 32 33
4 6 31 34 35
4 3 2 33 36
4 7 6 35 37
4 9 3 36 38
4 11 7 37 39
4 13 9 38 40
4 15 11 39 41
4 17 13 40 42
4 19 15 41 43
4 21 17 42 44
4 23 19 43 45
3 26 25 46
3 27 21 44
4 29 23 45 32
4 31 26 46 34
4 42 40 47 48
4 43 41 49 50
4 44 42 48 51
4 45 43 50 52
3 46 25 53
3 27 44 51
4 32 45 52 54
4 34 46 53 55
4 33 32 54 56
4 35 34 55 57
4 36 33 56 58
4 37 35 57 59
4 38 36 58 60
4 39 37 59 61
4 40 38 60 47
4 41 39 61 49
4 57 55 62 63
4 58 56 64 65
4 59 57 63 66
4 60 58 65 67
4 61 59 66 68
4 47 60 67 69
4 49 61 68 70
4 48 47 69 71
4 50 49 70 72
4 51 48 71 73
4 52 50 72 74
3 53 25 75
3 27 51 73
4 54 52 74 76
4 55 53 75 62
4 56 54 76 64
4 72 70 77 78
4 73 71 79 80
4 74 72 78 81
3 75 25 82
3 27 73 80
4 76 74 81 83
4 62 75 82 84
4 64 76 83 85
4 63 62 84 86
4 65 64 85 87
4 66 63 86 88
4 67 65 87 89
4 68 66 88 90
4 69 67 89 91
4 70 68 90 77
4 71 69 91 79
4 87 85 92 93
4 88 86 94 95
4 89 87 93 96
4 90 88 95 97
4 91 89 96 98
4 77 90 97 99
4 79 91 98 100
4 78 77 99 101
4 80 79 100 102
4 81 78 101 103
3 82 25 104
3 27 80 102
4 83 81 103 105
4 84 82 104 106
4 85 83 105 92
4 86 84 106 94
4 102 100 107 108
4 103 101 109 110
3 104 25 111
3 27 102 108
4 105 103 110 112
4 106 104 111 113
4 92 105 112 114
4 94 106 113 115
4 93 92 114 116
4 95 94 115 117
4 96 93 116 118
4 97 95 117 119
4 98 96 118 120
4 99 97 119 121
4 100 98 120 107
4 101 99 121 109
4 117 115 122 123
4 118 116 124 125
4 119 117 123 126
4 120 118 125 127
4 121 119 126 128
4 107 120 127 129
4 109 121 128 130
4 108 107 129 131
4 110 109 130 132
3 111 25 133
3 27 108 131
4 112 110 132 134
4 113 111 133 135
4 114 112 134 136
4 115 113 135 122
4 116 114 136 124
4 132 130 137 138
3 133 25 139
3 27 131 140
4 134 132 138 141
4 135 133 139 142
4 136 134 141 143
4 122 135 142 144
4 124 136 143 145
4 123 122 144 146
4 125 124 145 147
4 126 123 146 148
4 127 125 147 149
4 128 126 148 150
4 129 127 149 151
4 130 128 150 137
4 131 129 151 140
4 147 145 152 153
4 148 146 154 155
4 149 147 153 156
4 150 148 155 157
4 151 149 156 158
4 137 150 157 159
4 140 151 158 160
4 138 137 159 161
3 139 25 162
3 27 140 160
4 141 138 161 163
4 142 139 162 164
4 143 141 163 165
4 144 142 164 166
4 145 143 165 152
4 146 144 166 154
3 27 160 167
4 163 161 168 169
4 164 162 170 171
4 165 163 169 172
4 166 164 171 173
4 152 165 172 174
4 154 166 173 175
4 153 152 174 176
4 155 154 175 177
4 156 153 176 178
4 157 155 177 179
4 158 156 178 180
4 159 157 179 181
4 160 158 180 167
4 161 159 181 168
3 162 25 170
4 178 176 182 183
4 179 177 184 185
4 180 178 183 186
4 181 179 185 187
4 167 180 186 188
4 168 181 187 189
3 170 25 190
3 27 167 188
4 169 168 189 191
4 171 170 190 192
4 172 169 191 193
4 173 171 192 194
4 174 172 193 195
4 175 173 194 196
4 176 174 195 182
4 177 175 196 184
4 192 190 197 198
4 193 191 199 200
4 194 192 198 201
4 195 193 200 202
4 196 194 201 203
4 182 195 202 204
4 184 196 203 205
4 183 182 204 206
4 185 184 205 207
4 186 183 206 208
4 187 185 207 209
4 188 186 208 210
4 189 187 209 211
3 190 25 197
3 27 188 210
4 191 189 211 199
4 207 205 212 213
4 208 206 214 215
4 209 207 213 216
4 210 208 215 217
4 211 209 216 218
3 197 25 219
3 27 210 217
4 199 211 218 220
4 198 197 219 221
4 200 199 220 222
4 201 198 221 223
4 202 200 222 224
4 203 201 223 225
4 204 202 224 226
4 205 203 225 212
4 206 204 226 214
4 222 220 227 228
4 223 221 229 230
4 224 222 228 231
4 225 223 230 232
4 226 224 231 233
4 212 225 232 234
4 214 226 233 235
4 213 212 234 236
4 215 214 235 237
4 216 213 236 238
4 217 215 237 239
4 218 216 238 240
3 219 25 241
3 27 217 239
4 220 218 240 227
4 221 219 241 229
4 237 235 242 243
4 238 236 244 245
4 239 237 243 246
4 240 238 245 247
3 241 25 248
3 27 239 246
4 227 240 247 249
4 229 241 248 250
4 228 227 249 251
4 230 229 250 252
4 231 228 251 253
4 232 230 252 254
4 233 231 253 255
4 234 232 254 256
4 235 233 255 242
4 236 234 256 244
4 252 250 257 258
4 253 251 259 260
4 254 252 258 261
4 255 253 260 262
4 256 254 261 263
4 242 255 262 264
4 244 256 263 265
4 243 242 264 266
4 245 244 265 267
4 246 243 266 268
4 247 245 267 269
3 248 25 270
3 27 246 268
4 249 247 269 271
4 250 248 270 257
4 251 249 271 259
4 267 265 272 273
4 268 266 274 275
4 269 267 273 276
3 270 25 277
3 27 268 275
4 271 269 276 278
4 257 270 277 279
4 259 271 278 280
4 258 257 279 281
4 260 259 280 282
4 261 258 281 283
4 262 260 282 284
4 263 261 283 285
4 264 262 284 286
4 265 263 285 272
4 266 264 286 274
4 282 280 287 288
4 283 281 289 290
4 284 282 288 291
4 285 283 290 292
4 286 284 291 293
4 272 285 292 294
4 274 286 293 295
4 273 272 294 296
4 275 274 295 297
4 276 273 296 298
3 277 25 299
3 27 275 297
4 278 276 298 300
4 279 277 299 301
4 280 278 300 287
4 281 279 301 289
4 297 295 302 303
4 298 296 304 305
3 299 25 306
3 27 297 303
4 300 298 305 307
4 301 299 306 308
4 287 300 307 309
4 289 301 308 310
4 288 287 309 311
4 290 289 310 312
4 291 288 311 313
4 292 290 312 314
4 293 291 313 315
4 294 292 314 316
4 295 293 315 302
4 296 294 316 304
4 313 311 317 318
4 314 312 319 320
4 315 313 318 321
4 316 314 320 322
4 302 315 321 323
4 304 316 322 324
4 303 302 323 325
4 305 304 324 326
3 306 25 327
3 27 303 325
4 307 305 326 328
4 308 306 327 329
4 309 307 328 330
4 310 308 329 331
4 311 309 330 317
4 312 310 331 319
3 327 25 332
3 27 325 333
4 328 326 334 335
4 329 327 332 336
4 330 328 335 337
4 331 329 336 338
4 317 330 337 339
4 319 331 338 340
4 318 317 339 341
4 320 319 340 342
4 321 318 341 343
4 322 320 342 344
4 323 321 343 345
4 324 322 344 346
4 325 323 345 333
4 326 324 346 334
4 342 340 347 348
4 343 341 349 350
4 344 342 348 351
4 345 343 350 352
4 346 344 351 353
4 333 345 352 354
4 334 346 353 355
3 332 25 356
3 27 333 354
4 335 334 355 357
4 336 332 356 358
4 337 335 357 359
4 338 336 358 360
4 339 337 359 361
4 340 338 360 347
4 341 339 361 349
4 357 355 362 363
4 358 356 364 365
4 359 357 363 366
4 360 358 365 367
4 361 359 366 368
4 347 360 367 369
4 349 361 368 370
4 348 347 369 371
4 350 349 370 372
4 351 348 371 373
4 352 350 372 374
4 353 351 373 375
4 354 352 374 376
4 355 353 375 362
3 356 25 364
3 27 354 376
4 372 370 377 378
4 373 371 379 380
4 374 372 378 381
4 375 373 380 382
4 376 374 381 383
4 362 375 382 384
3 364 25 385
3 27 376 383
4 363 362 384 386
4 365 364 385 387
4 366 363 386 388
4 367 365 387 389
4 368 366 388 390
4 369 367 389 391
4 370 368 390 377
4 371 369 391 379
4 387 385 392 393
4 388 386 394 395
4 389 387 393 396
4 390 388 395 397
4 391 389 396 398
4 377 390 397 399
4 379 391 398 400
4 378 377 399 401
4 380 379 400 402
4 381 378 401 403
4 382 380 402 404
4 383 381 403 405
4 384 382 404 406
3 385 25 392
3 27 383 405
4 386 384 406 394
4 402 400 407 408
4 403 401 409 410
4 404 402 408 411
4 405 403 410 412
4 406 404 411 413
3 392 25 414
3 27 405 412
4 394 406 413 415
4 393 392 414 416
4 395 394 415 417
4 396 393 416 418
4 397 395 417 419
4 398 396 418 420
4 399 397 419 421
4 400 398 420 407
4 401 399 421 409
4 417 415 422 423
4 418 416 424 425
4 419 417 423 426
4 420 418 425 427
4 421 419 426 428
4 407 420 427 429
4 409 421 428 430
4 408 407 429 431
4 410 409 430 432
4 411 408 431 433
4 412 410 432 434
4 413 411 433 435
3 414 25 436
3 27 412 434
4 415 413 435 422
4 416 414 436 424
4 432 430 437 438
4 433 431 439 440
4 434 432 438 441
4 435 433 440 442
3 436 25 443
3 27 434 441
4 422 435 442 444
4 424 436 443 445
4 423 422 444 446
4 425 424 445 447
4 426 423 446 448
4 427 425 447 449
4 428 426 448 450
4 429 427 449 451
4 430 428 450 437
4 431 429 451 439
4 448 446 452 453
4 449 447 454 455
4 450 448 453 456
4 451 449 455 457
4 437 450 456 458
4 439 451 457 459
4 438 437 458 460
4 440 439 459 461
4 441 438 460 462
4 442 440 461 463
3 443 25 464
3 27 441 462
4 444 442 463 465
4 445 443 464 466
4 446 444 465 452
4 447 445 466 454
4 462 460 467 468
4 463 461 469 470
3 464 25 471
3 27 462 468
4 465 463 470 472
4 466 464 471 473
4 452 465 472 474
4 454 466 473 475
4 453 452 474 476
4 455 454 475 477
4 456 453 476 478
4 457 455 477 479
4 458 456 478 480
4 459 457 479 481
4 460 458 480 467
4 461 459 481 469
4 477 475 5 4
4 478 476 0 8
4 479 477 4 10
4 480 478 8 12
4 481 479 10 14
4 467 480 12 16
4 469 481 14 18
4 468 467 16 20
4 470 469 18 22
3 471 25 24
3 27 468 20
4 472 470 22 28
4 473 471 24 30
4 474 472 28 1
4 475 473 30 5
4 476 474 1 0
